<svg width="476" height="197" viewBox="0 0 476 197" fill="none" xmlns="http://www.w3.org/2000/svg">
<path d="M27.5847 40.0511V40.4773C27.561 44.9754 27.0875 48.5739 26.1642 51.2727C25.2646 53.9479 23.9862 56.1141 22.329 57.7713C20.6718 59.4048 18.6832 60.9318 16.3631 62.3523C14.99 63.1809 13.7353 64.187 12.5989 65.3707C11.4862 66.5545 10.5984 67.9157 9.93555 69.4545C9.29634 70.9697 8.97674 72.6742 8.97674 74.5682C8.97674 76.8883 9.52125 78.9006 10.6103 80.6051C11.6993 82.3097 13.1552 83.6236 14.9782 84.5469C16.8011 85.4702 18.8252 85.9318 21.0506 85.9318C22.9919 85.9318 24.8622 85.5294 26.6614 84.7244C28.4606 83.9195 29.964 82.6529 31.1713 80.9247C32.4024 79.1965 33.1008 76.9356 33.2665 74.142H42.2154C42.0497 78.1667 41.008 81.6113 39.0904 84.4759C37.1728 87.3404 34.6396 89.5303 31.4909 91.0455C28.3659 92.5606 24.8858 93.3182 21.0506 93.3182C16.8839 93.3182 13.2499 92.4896 10.1486 90.8324C7.07096 89.1752 4.67987 86.9025 2.97532 84.0142C1.29445 81.1259 0.454013 77.8352 0.454013 74.142C0.454013 71.5142 0.844638 69.1468 1.62589 67.0398C2.43081 64.9328 3.56718 63.0507 5.03498 61.3935C6.52646 59.7363 8.31386 58.2803 10.3972 57.0256C12.4805 55.7235 14.1496 54.3622 15.4043 52.9418C16.659 51.4976 17.5705 49.7931 18.1387 47.8281C18.7069 45.8632 19.0146 43.4129 19.062 40.4773V40.0511H27.5847ZM23.0392 19.0284C24.7911 19.0284 26.2944 19.6558 27.5492 20.9105C28.8039 22.1652 29.4313 23.6686 29.4313 25.4205C29.4313 27.1723 28.8039 28.6757 27.5492 29.9304C26.2944 31.1851 24.7911 31.8125 23.0392 31.8125C21.2873 31.8125 19.784 31.1851 18.5293 29.9304C17.2746 28.6757 16.6472 27.1723 16.6472 25.4205C16.6472 24.2367 16.9313 23.1714 17.4995 22.2244C18.0913 21.2538 18.8726 20.4844 19.8432 19.9162C20.8139 19.3243 21.8792 19.0284 23.0392 19.0284ZM81.3933 51.2727H91.0524L99.149 61.9261L101.28 64.767L113.354 80.8182H103.694L95.7399 70.1648L93.7512 67.4659L81.3933 51.2727ZM116.336 37.6364C116.336 45.3068 114.952 51.9356 112.182 57.5227C109.412 63.1098 105.612 67.4186 100.782 70.4489C95.9529 73.4792 90.4368 74.9943 84.2342 74.9943C78.0315 74.9943 72.5154 73.4792 67.6859 70.4489C62.8564 67.4186 59.0566 63.1098 56.2868 57.5227C53.5169 51.9356 52.1319 45.3068 52.1319 37.6364C52.1319 29.9659 53.5169 23.3371 56.2868 17.75C59.0566 12.1629 62.8564 7.85417 67.6859 4.82386C72.5154 1.79356 78.0315 0.278406 84.2342 0.278406C90.4368 0.278406 95.9529 1.79356 100.782 4.82386C105.612 7.85417 109.412 12.1629 112.182 17.75C114.952 23.3371 116.336 29.9659 116.336 37.6364ZM107.814 37.6364C107.814 31.339 106.76 26.0241 104.653 21.6918C102.57 17.3594 99.7408 14.0805 96.166 11.8551C92.6149 9.62973 88.6376 8.51704 84.2342 8.51704C79.8308 8.51704 75.8417 9.62973 72.2669 11.8551C68.7157 14.0805 65.8867 17.3594 63.7797 21.6918C61.6963 26.0241 60.6547 31.339 60.6547 37.6364C60.6547 43.9337 61.6963 49.2486 63.7797 53.581C65.8867 57.9134 68.7157 61.1922 72.2669 63.4176C75.8417 65.643 79.8308 66.7557 84.2342 66.7557C88.6376 66.7557 92.6149 65.643 96.166 63.4176C99.7408 61.1922 102.57 57.9134 104.653 53.581C106.76 49.2486 107.814 43.9337 107.814 37.6364ZM178.872 1.27273H187.679V49.4261C187.679 54.3977 186.507 58.8366 184.163 62.7429C181.843 66.6255 178.564 69.6913 174.327 71.9403C170.089 74.1657 165.117 75.2784 159.412 75.2784C153.706 75.2784 148.735 74.1657 144.497 71.9403C140.259 69.6913 136.969 66.6255 134.625 62.7429C132.305 58.8366 131.145 54.3977 131.145 49.4261V1.27273H139.952V48.7159C139.952 52.267 140.733 55.4276 142.295 58.1974C143.858 60.9437 146.083 63.1098 148.971 64.696C151.883 66.2585 155.363 67.0398 159.412 67.0398C163.46 67.0398 166.94 66.2585 169.852 64.696C172.764 63.1098 174.989 60.9437 176.528 58.1974C178.091 55.4276 178.872 52.267 178.872 48.7159V1.27273ZM214.073 1.27273V74H205.266V1.27273H214.073ZM231.731 74V1.27273H275.623V9.08523H240.537V33.6591H273.35V41.4716H240.537V66.1875H276.191V74H231.731ZM349.167 1.27273V74H340.644L301.013 16.8977H300.303V74H291.496V1.27273H300.019L339.792 58.517H340.502V1.27273H349.167ZM366.789 74V1.27273H410.681V9.08523H375.596V33.6591H408.409V41.4716H375.596V66.1875H411.249V74H366.789ZM466.328 19.4545C465.901 15.8561 464.173 13.0625 461.143 11.0739C458.113 9.08523 454.396 8.09091 449.992 8.09091C446.773 8.09091 443.955 8.61174 441.541 9.65341C439.15 10.6951 437.279 12.1274 435.93 13.9503C434.604 15.7732 433.941 17.8447 433.941 20.1648C433.941 22.1061 434.403 23.7751 435.326 25.1719C436.273 26.545 437.481 27.6932 438.948 28.6165C440.416 29.5161 441.955 30.2618 443.565 30.8537C445.175 31.4219 446.654 31.8835 448.004 32.2386L455.39 34.2273C457.284 34.7244 459.391 35.411 461.711 36.2869C464.055 37.1629 466.292 38.3584 468.423 39.8736C470.577 41.3651 472.353 43.2827 473.749 45.6264C475.146 47.9702 475.845 50.8466 475.845 54.2557C475.845 58.1856 474.815 61.7367 472.755 64.9091C470.719 68.0814 467.736 70.6027 463.806 72.473C459.9 74.3433 455.153 75.2784 449.566 75.2784C444.358 75.2784 439.848 74.438 436.036 72.7571C432.249 71.0762 429.266 68.7325 427.088 65.7259C424.933 62.7192 423.714 59.2273 423.43 55.25H432.521C432.758 57.9962 433.681 60.2689 435.291 62.0682C436.924 63.8437 438.984 65.1695 441.47 66.0455C443.979 66.8977 446.678 67.3239 449.566 67.3239C452.928 67.3239 455.946 66.7794 458.622 65.6903C461.297 64.5777 463.416 63.0388 464.978 61.0739C466.541 59.0852 467.322 56.7652 467.322 54.1136C467.322 51.6989 466.647 49.7339 465.298 48.2188C463.948 46.7036 462.173 45.4725 459.971 44.5256C457.769 43.5786 455.39 42.75 452.833 42.0398L443.884 39.483C438.203 37.8494 433.704 35.5175 430.39 32.4872C427.076 29.4569 425.419 25.4915 425.419 20.5909C425.419 16.5189 426.519 12.9678 428.721 9.9375C430.946 6.88352 433.929 4.5161 437.67 2.83523C441.434 1.13068 445.636 0.278406 450.276 0.278406C454.964 0.278406 459.131 1.11884 462.776 2.79971C466.422 4.45691 469.311 6.72964 471.441 9.61789C473.596 12.5062 474.732 15.785 474.85 19.4545H466.328Z" fill="url(#paint0_linear_85_2)"/>
<path d="M91.3764 140.455C90.9503 136.856 89.2221 134.062 86.1918 132.074C83.1615 130.085 79.4446 129.091 75.0412 129.091C71.8215 129.091 69.0043 129.612 66.5895 130.653C64.1984 131.695 62.3281 133.127 60.9787 134.95C59.6529 136.773 58.9901 138.845 58.9901 141.165C58.9901 143.106 59.4517 144.775 60.375 146.172C61.322 147.545 62.5294 148.693 63.9972 149.616C65.465 150.516 67.0038 151.262 68.6136 151.854C70.2235 152.422 71.7031 152.884 73.0526 153.239L80.4389 155.227C82.3329 155.724 84.4399 156.411 86.7599 157.287C89.1037 158.163 91.3409 159.358 93.4716 160.874C95.6259 162.365 97.4015 164.283 98.7983 166.626C100.195 168.97 100.893 171.847 100.893 175.256C100.893 179.186 99.8636 182.737 97.804 185.909C95.768 189.081 92.785 191.603 88.8551 193.473C84.9489 195.343 80.2022 196.278 74.6151 196.278C69.4067 196.278 64.8968 195.438 61.0852 193.757C57.2973 192.076 54.3144 189.732 52.1364 186.726C49.982 183.719 48.7628 180.227 48.4787 176.25H57.5696C57.8063 178.996 58.7296 181.269 60.3395 183.068C61.973 184.844 64.0327 186.17 66.5185 187.045C69.0279 187.898 71.7268 188.324 74.6151 188.324C77.9768 188.324 80.9953 187.779 83.6705 186.69C86.3456 185.578 88.4645 184.039 90.027 182.074C91.5895 180.085 92.3707 177.765 92.3707 175.114C92.3707 172.699 91.696 170.734 90.3466 169.219C88.9972 167.704 87.2216 166.473 85.0199 165.526C82.8182 164.579 80.4389 163.75 77.8821 163.04L68.9332 160.483C63.2514 158.849 58.7533 156.518 55.4389 153.487C52.1245 150.457 50.4673 146.491 50.4673 141.591C50.4673 137.519 51.5682 133.968 53.7699 130.938C55.9953 127.884 58.9782 125.516 62.7188 123.835C66.483 122.131 70.6851 121.278 75.3253 121.278C80.0128 121.278 84.1795 122.119 87.8253 123.8C91.4711 125.457 94.3594 127.73 96.4901 130.618C98.6444 133.506 99.7808 136.785 99.8991 140.455H91.3764ZM176.737 158.636C176.737 166.307 175.352 172.936 172.582 178.523C169.812 184.11 166.012 188.419 161.183 191.449C156.353 194.479 150.837 195.994 144.635 195.994C138.432 195.994 132.916 194.479 128.086 191.449C123.257 188.419 119.457 184.11 116.687 178.523C113.917 172.936 112.532 166.307 112.532 158.636C112.532 150.966 113.917 144.337 116.687 138.75C119.457 133.163 123.257 128.854 128.086 125.824C132.916 122.794 138.432 121.278 144.635 121.278C150.837 121.278 156.353 122.794 161.183 125.824C166.012 128.854 169.812 133.163 172.582 138.75C175.352 144.337 176.737 150.966 176.737 158.636ZM168.214 158.636C168.214 152.339 167.161 147.024 165.054 142.692C162.97 138.359 160.141 135.08 156.566 132.855C153.015 130.63 149.038 129.517 144.635 129.517C140.231 129.517 136.242 130.63 132.667 132.855C129.116 135.08 126.287 138.359 124.18 142.692C122.097 147.024 121.055 152.339 121.055 158.636C121.055 164.934 122.097 170.249 124.18 174.581C126.287 178.913 129.116 182.192 132.667 184.418C136.242 186.643 140.231 187.756 144.635 187.756C149.038 187.756 153.015 186.643 156.566 184.418C160.141 182.192 162.97 178.913 165.054 174.581C167.161 170.249 168.214 164.934 168.214 158.636ZM191.545 122.273H202.056L226.772 182.642H227.625L252.341 122.273H262.852V195H254.613V139.744H253.903L231.176 195H223.221L200.494 139.744H199.784V195H191.545V122.273ZM341.874 158.636C341.874 166.307 340.489 172.936 337.719 178.523C334.949 184.11 331.149 188.419 326.32 191.449C321.49 194.479 315.974 195.994 309.771 195.994C303.569 195.994 298.053 194.479 293.223 191.449C288.393 188.419 284.594 184.11 281.824 178.523C279.054 172.936 277.669 166.307 277.669 158.636C277.669 150.966 279.054 144.337 281.824 138.75C284.594 133.163 288.393 128.854 293.223 125.824C298.053 122.794 303.569 121.278 309.771 121.278C315.974 121.278 321.49 122.794 326.32 125.824C331.149 128.854 334.949 133.163 337.719 138.75C340.489 144.337 341.874 150.966 341.874 158.636ZM333.351 158.636C333.351 152.339 332.297 147.024 330.19 142.692C328.107 138.359 325.278 135.08 321.703 132.855C318.152 130.63 314.175 129.517 309.771 129.517C305.368 129.517 301.379 130.63 297.804 132.855C294.253 135.08 291.424 138.359 289.317 142.692C287.233 147.024 286.192 152.339 286.192 158.636C286.192 164.934 287.233 170.249 289.317 174.581C291.424 178.913 294.253 182.192 297.804 184.418C301.379 186.643 305.368 187.756 309.771 187.756C314.175 187.756 318.152 186.643 321.703 184.418C325.278 182.192 328.107 178.913 330.19 174.581C332.297 170.249 333.351 164.934 333.351 158.636ZM396.455 140.455C396.028 136.856 394.3 134.062 391.27 132.074C388.24 130.085 384.523 129.091 380.119 129.091C376.9 129.091 374.082 129.612 371.668 130.653C369.277 131.695 367.406 133.127 366.057 134.95C364.731 136.773 364.068 138.845 364.068 141.165C364.068 143.106 364.53 144.775 365.453 146.172C366.4 147.545 367.607 148.693 369.075 149.616C370.543 150.516 372.082 151.262 373.692 151.854C375.302 152.422 376.781 152.884 378.131 153.239L385.517 155.227C387.411 155.724 389.518 156.411 391.838 157.287C394.182 158.163 396.419 159.358 398.55 160.874C400.704 162.365 402.48 164.283 403.876 166.626C405.273 168.97 405.972 171.847 405.972 175.256C405.972 179.186 404.942 182.737 402.882 185.909C400.846 189.081 397.863 191.603 393.933 193.473C390.027 195.343 385.28 196.278 379.693 196.278C374.485 196.278 369.975 195.438 366.163 193.757C362.375 192.076 359.393 189.732 357.214 186.726C355.06 183.719 353.841 180.227 353.557 176.25H362.648C362.884 178.996 363.808 181.269 365.418 183.068C367.051 184.844 369.111 186.17 371.597 187.045C374.106 187.898 376.805 188.324 379.693 188.324C383.055 188.324 386.073 187.779 388.749 186.69C391.424 185.578 393.543 184.039 395.105 182.074C396.668 180.085 397.449 177.765 397.449 175.114C397.449 172.699 396.774 170.734 395.425 169.219C394.075 167.704 392.3 166.473 390.098 165.526C387.896 164.579 385.517 163.75 382.96 163.04L374.011 160.483C368.33 158.849 363.831 156.518 360.517 153.487C357.203 150.457 355.545 146.491 355.545 141.591C355.545 137.519 356.646 133.968 358.848 130.938C361.073 127.884 364.056 125.516 367.797 123.835C371.561 122.131 375.763 121.278 380.403 121.278C385.091 121.278 389.258 122.119 392.903 123.8C396.549 125.457 399.438 127.73 401.568 130.618C403.723 133.506 404.859 136.785 404.977 140.455H396.455ZM430.252 174.545V174.119C430.3 169.598 430.773 165.999 431.673 163.324C432.573 160.649 433.851 158.482 435.508 156.825C437.165 155.168 439.154 153.641 441.474 152.244C442.871 151.392 444.126 150.386 445.238 149.226C446.351 148.042 447.227 146.681 447.866 145.142C448.529 143.603 448.86 141.899 448.86 140.028C448.86 137.708 448.316 135.696 447.227 133.991C446.138 132.287 444.682 130.973 442.859 130.05C441.036 129.126 439.012 128.665 436.787 128.665C434.845 128.665 432.975 129.067 431.176 129.872C429.377 130.677 427.873 131.944 426.666 133.672C425.458 135.4 424.76 137.661 424.571 140.455H415.622C415.811 136.43 416.853 132.985 418.747 130.121C420.664 127.256 423.186 125.066 426.311 123.551C429.459 122.036 432.951 121.278 436.787 121.278C440.953 121.278 444.575 122.107 447.653 123.764C450.754 125.421 453.145 127.694 454.826 130.582C456.531 133.471 457.383 136.761 457.383 140.455C457.383 143.059 456.981 145.414 456.176 147.521C455.395 149.628 454.258 151.51 452.767 153.168C451.299 154.825 449.523 156.293 447.44 157.571C445.357 158.873 443.688 160.246 442.433 161.69C441.178 163.111 440.267 164.804 439.699 166.768C439.13 168.733 438.823 171.184 438.775 174.119V174.545H430.252ZM434.798 195.568C433.046 195.568 431.543 194.941 430.288 193.686C429.033 192.431 428.406 190.928 428.406 189.176C428.406 187.424 429.033 185.921 430.288 184.666C431.543 183.411 433.046 182.784 434.798 182.784C436.55 182.784 438.053 183.411 439.308 184.666C440.563 185.921 441.19 187.424 441.19 189.176C441.19 190.336 440.894 191.402 440.302 192.372C439.734 193.343 438.965 194.124 437.994 194.716C437.047 195.284 435.982 195.568 434.798 195.568Z" fill="black"/>
<defs>
<linearGradient id="paint0_linear_85_2" x1="72.7847" y1="149.983" x2="382.386" y2="82.1355" gradientUnits="userSpaceOnUse">
<stop stop-color="#BD9851"/>
<stop offset="0.192155" stop-color="#DECA8B"/>
<stop offset="0.375" stop-color="#F9F1B0"/>
<stop offset="0.5" stop-color="#F7EFAE"/>
<stop offset="1" stop-color="#B59353"/>
</linearGradient>
</defs>
</svg>
